<svg width="24" height="18" viewBox="0 0 24 18" fill="none" xmlns="http://www.w3.org/2000/svg">
<circle cx="17.3329" cy="2.66667" r="2.66667" fill="#2671D9"/>
<path fill-rule="evenodd" clip-rule="evenodd" d="M23.9996 14.6667C23.9996 10.9848 21.0148 8 17.3329 8C13.651 8 10.6663 10.9848 10.6663 14.6667H23.9996Z" fill="#2671D9"/>
<circle cx="6.66667" cy="2.66667" r="2.66667" fill="#2671D9"/>
<path fill-rule="evenodd" clip-rule="evenodd" d="M13.3333 14.6667C13.3333 10.9848 10.3486 8 6.66667 8C2.98477 8 0 10.9848 0 14.6667H13.3333Z" fill="#2671D9"/>
<circle cx="13.3329" cy="3.9987" r="2.66667" fill="white"/>
<path fill-rule="evenodd" clip-rule="evenodd" d="M19.9996 15.998H6.66626C6.66661 12.3164 9.65124 9.33203 13.3329 9.33203C17.0146 9.33203 19.9992 12.3164 19.9996 15.998Z" fill="white"/>
<circle cx="10.6667" cy="3.9987" r="2.66667" fill="white"/>
<path fill-rule="evenodd" clip-rule="evenodd" d="M17.3333 15.998H4C4.00035 12.3164 6.98499 9.33203 10.6667 9.33203C14.3483 9.33203 17.333 12.3164 17.3333 15.998Z" fill="white"/>
<circle cx="12.0004" cy="5.33464" r="2.66667" fill="#2671D9"/>
<path fill-rule="evenodd" clip-rule="evenodd" d="M18.6671 17.3353C18.6671 17.3351 18.6671 17.3349 18.6671 17.3346C18.6671 13.6527 15.6823 10.668 12.0004 10.668C8.31851 10.668 5.33374 13.6527 5.33374 17.3346C5.33374 17.3349 5.33374 17.3351 5.33374 17.3353H18.6671Z" fill="#2671D9"/>
</svg>
