<svg width="25" height="19" viewBox="0 0 25 19" fill="none" xmlns="http://www.w3.org/2000/svg">
<path d="M9.61403 16.0003L8.68203 16.9323C6.92466 18.6897 4.0754 18.6897 2.31803 16.9323C0.560657 15.1749 0.560657 12.3257 2.31803 10.5683L7.09103 5.79429C8.75064 4.13092 11.4107 4.02444 13.1979 5.54983C14.9852 7.07523 15.298 9.71894 13.916 11.6193" stroke="#2671D9" stroke-width="1.5" stroke-linecap="round" stroke-linejoin="round"/>
<path d="M15.0681 3.06803L15.8181 2.31803C17.5755 0.560657 20.4247 0.560657 22.1821 2.31803C23.9395 4.0754 23.9395 6.92466 22.1821 8.68203L17.4091 13.455C15.7491 15.1177 13.0895 15.2235 11.3027 13.698C9.51584 12.1725 9.2033 9.52916 10.5851 7.62903" stroke="#2671D9" stroke-width="1.5" stroke-linecap="round" stroke-linejoin="round"/>
</svg>
